<svg xmlns="http://www.w3.org/2000/svg" width="1920" height="342.855" viewBox="0 0 1920 342.855" fill="none">
  <path d="M 0 0 L -79.737 82.826 C 40.799 198.868 209.498 282.016 391.03 339.917 C 574.023 398.283 778.421 433.64 978.421 448.922 C 1178.479 464.208 1377.428 459.658 1550.123 436.44 C 1719.297 413.695 1876.354 371.38 1982.715 302.155 L 1920 205.796 L 1857.285 109.438 C 1794.065 150.584 1677.788 187.267 1519.484 208.55 C 1364.701 229.36 1182.031 233.869 995.939 219.65 C 809.789 205.427 623.508 172.714 460.903 120.85 C 296.838 68.52 165.021 -0.722 79.737 -82.826 L 0 0 Z" fill="currentColor" fill-rule="nonzero"/>
</svg>
