<svg xmlns="http://www.w3.org/2000/svg" width="56.215" height="23.593" viewBox="0 0 56.215 23.593" fill="none">
  <path d="M 0 23.593 L 0 5.056 L 2.001 5.056 L 2.001 7.197 L 2.247 7.197 C 2.399 6.963 2.61 6.665 2.879 6.302 C 3.154 5.933 3.546 5.606 4.055 5.319 C 4.57 5.026 5.266 4.88 6.144 4.88 C 7.279 4.88 8.28 5.164 9.146 5.731 C 10.012 6.299 10.688 7.104 11.173 8.145 C 11.659 9.187 11.902 10.416 11.902 11.832 C 11.902 13.259 11.659 14.497 11.173 15.544 C 10.688 16.586 10.015 17.393 9.155 17.967 C 8.294 18.534 7.303 18.818 6.179 18.818 C 5.313 18.818 4.62 18.675 4.099 18.388 C 3.578 18.096 3.177 17.765 2.896 17.396 C 2.616 17.022 2.399 16.712 2.247 16.466 L 2.071 16.466 L 2.071 23.593 L 0 23.593 Z M 2.036 11.796 C 2.036 12.815 2.186 13.713 2.484 14.491 C 2.782 15.263 3.218 15.869 3.792 16.308 C 4.365 16.741 5.067 16.957 5.898 16.957 C 6.764 16.957 7.487 16.729 8.066 16.273 C 8.651 15.811 9.09 15.19 9.383 14.412 C 9.681 13.628 9.83 12.756 9.83 11.796 C 9.83 10.849 9.684 9.994 9.392 9.234 C 9.105 8.467 8.669 7.861 8.084 7.417 C 7.504 6.966 6.776 6.741 5.898 6.741 C 5.056 6.741 4.348 6.954 3.774 7.382 C 3.201 7.803 2.768 8.394 2.475 9.155 C 2.183 9.909 2.036 10.79 2.036 11.796 Z" fill="currentColor" fill-rule="nonzero"/>
  <path d="M 14.073 18.537 L 14.073 5.056 L 16.144 5.056 L 16.144 18.537 L 14.073 18.537 Z M 15.126 2.809 C 14.722 2.809 14.374 2.671 14.082 2.396 C 13.795 2.121 13.652 1.791 13.652 1.404 C 13.652 1.018 13.795 0.688 14.082 0.413 C 14.374 0.138 14.722 0 15.126 0 C 15.53 0 15.875 0.138 16.162 0.413 C 16.454 0.688 16.601 1.018 16.601 1.404 C 16.601 1.791 16.454 2.121 16.162 2.396 C 15.875 2.671 15.53 2.809 15.126 2.809 Z" fill="currentColor" fill-rule="nonzero"/>
  <path d="M 18.95 23.593 L 18.95 5.056 L 20.951 5.056 L 20.951 7.197 L 21.197 7.197 C 21.349 6.963 21.559 6.665 21.828 6.302 C 22.103 5.933 22.496 5.606 23.005 5.319 C 23.52 5.026 24.216 4.88 25.094 4.88 C 26.229 4.88 27.229 5.164 28.095 5.731 C 28.961 6.299 29.637 7.104 30.123 8.145 C 30.609 9.187 30.851 10.416 30.851 11.832 C 30.851 13.259 30.609 14.497 30.123 15.544 C 29.637 16.586 28.964 17.393 28.104 17.967 C 27.244 18.534 26.252 18.818 25.129 18.818 C 24.263 18.818 23.569 18.675 23.048 18.388 C 22.528 18.096 22.127 17.765 21.846 17.396 C 21.565 17.022 21.349 16.712 21.197 16.466 L 21.021 16.466 L 21.021 23.593 L 18.95 23.593 Z M 20.986 11.796 C 20.986 12.815 21.135 13.713 21.434 14.491 C 21.732 15.263 22.168 15.869 22.741 16.308 C 23.315 16.741 24.017 16.957 24.848 16.957 C 25.714 16.957 26.436 16.729 27.016 16.273 C 27.601 15.811 28.04 15.19 28.332 14.412 C 28.631 13.628 28.78 12.756 28.78 11.796 C 28.78 10.849 28.634 9.994 28.341 9.234 C 28.054 8.467 27.618 7.861 27.033 7.417 C 26.454 6.966 25.726 6.741 24.848 6.741 C 24.005 6.741 23.297 6.954 22.724 7.382 C 22.15 7.803 21.717 8.394 21.425 9.155 C 21.132 9.909 20.986 10.79 20.986 11.796 Z" fill="currentColor" fill-rule="nonzero"/>
  <path d="M 38.675 18.818 C 37.376 18.818 36.255 18.531 35.313 17.958 C 34.377 17.379 33.654 16.571 33.145 15.536 C 32.642 14.494 32.391 13.283 32.391 11.902 C 32.391 10.521 32.642 9.304 33.145 8.251 C 33.654 7.191 34.362 6.366 35.269 5.775 C 36.182 5.179 37.247 4.88 38.464 4.88 C 39.166 4.88 39.86 4.997 40.544 5.231 C 41.229 5.465 41.852 5.846 42.414 6.372 C 42.976 6.893 43.423 7.583 43.757 8.444 C 44.09 9.304 44.257 10.363 44.257 11.621 L 44.257 12.499 L 33.865 12.499 L 33.865 10.708 L 42.151 10.708 C 42.151 9.947 41.999 9.269 41.694 8.672 C 41.396 8.075 40.969 7.604 40.413 7.259 C 39.863 6.913 39.213 6.741 38.464 6.741 C 37.639 6.741 36.925 6.946 36.323 7.355 C 35.726 7.759 35.267 8.286 34.945 8.935 C 34.623 9.585 34.462 10.281 34.462 11.024 L 34.462 12.218 C 34.462 13.236 34.637 14.099 34.989 14.807 C 35.346 15.509 35.84 16.045 36.472 16.413 C 37.104 16.776 37.838 16.957 38.675 16.957 C 39.219 16.957 39.711 16.881 40.15 16.729 C 40.594 16.571 40.977 16.337 41.299 16.027 C 41.621 15.711 41.87 15.319 42.045 14.851 L 44.047 15.413 C 43.836 16.091 43.482 16.688 42.985 17.203 C 42.487 17.712 41.873 18.11 41.141 18.397 C 40.41 18.678 39.588 18.818 38.675 18.818 Z" fill="currentColor" fill-rule="nonzero"/>
  <path d="M 55.969 8.075 L 54.108 8.602 C 53.991 8.291 53.819 7.99 53.59 7.698 C 53.368 7.399 53.064 7.153 52.678 6.96 C 52.291 6.767 51.797 6.671 51.194 6.671 C 50.369 6.671 49.682 6.861 49.132 7.241 C 48.588 7.616 48.315 8.093 48.315 8.672 C 48.315 9.187 48.503 9.593 48.877 9.892 C 49.252 10.19 49.837 10.439 50.633 10.638 L 52.634 11.129 C 53.839 11.422 54.737 11.87 55.328 12.472 C 55.919 13.069 56.215 13.839 56.215 14.781 C 56.215 15.553 55.992 16.244 55.548 16.852 C 55.109 17.461 54.495 17.94 53.705 18.292 C 52.915 18.643 51.996 18.818 50.949 18.818 C 49.573 18.818 48.435 18.52 47.534 17.923 C 46.633 17.326 46.063 16.454 45.823 15.307 L 47.789 14.816 C 47.976 15.541 48.33 16.086 48.851 16.448 C 49.377 16.811 50.065 16.993 50.913 16.993 C 51.879 16.993 52.645 16.788 53.213 16.378 C 53.786 15.963 54.073 15.465 54.073 14.886 C 54.073 14.418 53.909 14.026 53.582 13.71 C 53.254 13.388 52.751 13.148 52.072 12.99 L 49.825 12.464 C 48.59 12.171 47.683 11.717 47.104 11.103 C 46.531 10.483 46.244 9.708 46.244 8.777 C 46.244 8.016 46.458 7.344 46.885 6.758 C 47.318 6.173 47.906 5.714 48.649 5.38 C 49.398 5.047 50.246 4.88 51.194 4.88 C 52.528 4.88 53.576 5.173 54.337 5.758 C 55.103 6.343 55.647 7.115 55.969 8.075 Z" fill="currentColor" fill-rule="nonzero"/>
</svg>
